<?xml version="1.0" encoding="UTF-8"?>
<svg width="134px" height="34px" viewBox="0 0 134 34" version="1.1" xmlns="http://www.w3.org/2000/svg" xmlns:xlink="http://www.w3.org/1999/xlink">
    <!-- Generator: Sketch 50.2 (55047) - http://www.bohemiancoding.com/sketch -->
    <title>google_podcasts_badge_svg</title>
    <desc>Created with Sketch.</desc>
    <defs></defs>
    <g id="google_podcasts_badge" stroke="none" stroke-width="1" fill="none" fill-rule="evenodd">
        <rect id="Rectangle" stroke="#9AA0A6" stroke-width="0.5" fill="#FFFFFF" x="0.25" y="0.25" width="133.5" height="33.5" rx="8"></rect>
        <g id="Podcast_icon_final" transform="translate(5.000000, 5.000000)">
            <g id="_logo_Podcasts_192px" transform="translate(1.000000, 1.000000)">
                <polygon id="Shape" fill="#FAB908" fill-rule="nonzero" points="9.625 7 9.625 10.33375 9.625 11.66625 9.625 15 12.375 15 12.375 11.66625 12.375 10.33375 12.375 7"></polygon>
                <circle id="Oval" fill="#0066D9" fill-rule="nonzero" cx="1.375" cy="10.25" r="1.375"></circle>
                <circle id="Oval" fill="#0066D9" fill-rule="nonzero" cx="1.375" cy="11.75" r="1.375"></circle>
                <rect id="Rectangle-path" fill="#0066D9" fill-rule="nonzero" x="0" y="10.25" width="2.75" height="1.5"></rect>
                <circle id="Oval" fill="#4285F4" fill-rule="nonzero" cx="20.625" cy="11.75" r="1.375"></circle>
                <circle id="Oval" fill="#4285F4" fill-rule="nonzero" cx="20.625" cy="10.25" r="1.375"></circle>
                <rect id="Rectangle-path" fill="#4285F4" fill-rule="nonzero" transform="translate(20.625000, 11.000000) rotate(180.000000) translate(-20.625000, -11.000000) " x="19.25" y="10.25" width="2.75" height="1.5"></rect>
                <circle id="Oval" fill="#EA4335" fill-rule="nonzero" cx="6.125" cy="14.75" r="1.375"></circle>
                <circle id="Oval" fill="#EA4335" fill-rule="nonzero" cx="6.125" cy="16.25" r="1.375"></circle>
                <rect id="Rectangle-path" fill="#EA4335" fill-rule="nonzero" x="4.75" y="14.75" width="2.75" height="1.5"></rect>
                <circle id="Oval" fill="#EA4335" fill-rule="nonzero" cx="6.125" cy="5.75" r="1.375"></circle>
                <circle id="Oval" fill="#EA4335" fill-rule="nonzero" cx="6.125" cy="10.625" r="1.375"></circle>
                <rect id="Rectangle-path" fill="#EA4335" fill-rule="nonzero" x="4.75" y="5.75" width="2.75" height="4.90625"></rect>
                <circle id="Oval" fill="#34A853" fill-rule="nonzero" cx="15.875" cy="7.25" r="1.375"></circle>
                <circle id="Oval" fill="#34A853" fill-rule="nonzero" cx="15.875" cy="5.75" r="1.375"></circle>
                <rect id="Rectangle-path" fill="#34A853" fill-rule="nonzero" transform="translate(15.875000, 6.500000) rotate(180.000000) translate(-15.875000, -6.500000) " x="14.5" y="5.75" width="2.75" height="1.5"></rect>
                <circle id="Oval" fill="#FAB908" fill-rule="nonzero" cx="11" cy="2.875" r="1.375"></circle>
                <circle id="Oval" fill="#FAB908" fill-rule="nonzero" cx="11" cy="1.375" r="1.375"></circle>
                <rect id="Rectangle-path" fill="#FAB908" fill-rule="nonzero" transform="translate(11.000000, 2.125000) rotate(180.000000) translate(-11.000000, -2.125000) " x="9.625" y="1.375" width="2.75" height="1.5"></rect>
                <circle id="Oval" fill="#FAB908" fill-rule="nonzero" cx="11" cy="20.625" r="1.375"></circle>
                <circle id="Oval" fill="#FAB908" fill-rule="nonzero" cx="11" cy="19.125" r="1.375"></circle>
                <rect id="Rectangle-path" fill="#FAB908" fill-rule="nonzero" transform="translate(11.000000, 19.875000) rotate(180.000000) translate(-11.000000, -19.875000) " x="9.625" y="19.125" width="2.75" height="1.5"></rect>
                <circle id="Oval" fill="#34A853" fill-rule="nonzero" cx="15.875" cy="16.25" r="1.375"></circle>
                <circle id="Oval" fill="#34A853" fill-rule="nonzero" cx="15.875" cy="11.375" r="1.375"></circle>
                <rect id="Rectangle-path" fill="#34A853" fill-rule="nonzero" transform="translate(15.875000, 13.812500) rotate(180.000000) translate(-15.875000, -13.812500) " x="14.5" y="11.375" width="2.75" height="4.875"></rect>
                <circle id="Oval" fill="#FAB908" fill-rule="nonzero" cx="11" cy="7" r="1.375"></circle>
                <circle id="Oval" fill="#FAB908" fill-rule="nonzero" cx="11" cy="15" r="1.375"></circle>
            </g>
        </g>
        <g id="Group" transform="translate(35.000000, 16.000000)">
            <polygon id="Rectangle-path" points="0 0 91 0 91 14 0 14"></polygon>
            <path d="M44.9158889,10.5 L43.771,10.5 L43.771,1.58977778 L46.8074444,1.58977778 C47.5624112,1.58977778 48.215738,1.84073823 48.7674444,2.34266667 C49.3191509,2.8445951 49.595,3.47718137 49.595,4.24044444 C49.595,5.00370752 49.3191509,5.63629379 48.7674444,6.13822222 C48.215738,6.64015066 47.5624112,6.89111111 46.8074444,6.89111111 L44.9158889,6.89111111 L44.9158889,10.5 Z M44.9158889,5.796 L46.8323333,5.796 C47.3135209,5.796 47.6992948,5.63422384 47.9896667,5.31066667 C48.2800385,4.98710949 48.4252222,4.63037232 48.4252222,4.24044444 C48.4252222,3.85051657 48.2800385,3.4937794 47.9896667,3.17022222 C47.6992948,2.84666505 47.3135209,2.68488889 46.8323333,2.68488889 L44.9158889,2.68488889 L44.9158889,5.796 Z M50.5442778,5.13644444 C51.1333178,4.51421911 51.8841251,4.20311111 52.7967222,4.20311111 C53.7093194,4.20311111 54.4601267,4.51214506 55.0491667,5.13022222 C55.6382066,5.74829939 55.9327222,6.52192128 55.9327222,7.45111111 C55.9327222,8.38030094 55.6382066,9.15392284 55.0491667,9.772 C54.4601267,10.3900772 53.7093194,10.6991111 52.7967222,10.6991111 C51.8841251,10.6991111 51.1333178,10.3900772 50.5442778,9.772 C49.9552378,9.15392284 49.6607222,8.38030094 49.6607222,7.45111111 C49.6607222,6.52192128 49.9552378,5.75037344 50.5442778,5.13644444 Z M51.3905,9.05644444 C51.7887242,9.45466866 52.2574603,9.65377778 52.7967222,9.65377778 C53.3359842,9.65377778 53.8026462,9.4525946 54.1967222,9.05022222 C54.5907983,8.64784984 54.7878333,8.11481813 54.7878333,7.45111111 C54.7878333,6.78740409 54.5907983,6.25437238 54.1967222,5.852 C53.8026462,5.44962762 53.3359842,5.24844444 52.7967222,5.24844444 C52.2574603,5.24844444 51.7907983,5.44962762 51.3967222,5.852 C51.0026462,6.25437238 50.8056111,6.78740409 50.8056111,7.45111111 C50.8056111,8.11481813 51.0005721,8.64992389 51.3905,9.05644444 Z M59.3833333,10.6991111 C58.5951812,10.6991111 57.9148918,10.3880031 57.3424444,9.76577778 C56.7699971,9.14355244 56.4837778,8.3720046 56.4837778,7.45111111 C56.4837778,6.53021762 56.7699971,5.75866978 57.3424444,5.13644444 C57.9148918,4.51421911 58.5951812,4.20311111 59.3833333,4.20311111 C59.8479282,4.20311111 60.264813,4.30266567 60.634,4.50177778 C61.003187,4.70088988 61.2790361,4.94977628 61.4615556,5.24844444 L61.5113333,5.24844444 L61.4615556,4.40222222 L61.4615556,1.58977778 L62.6064444,1.58977778 L62.6064444,10.5 L61.5113333,10.5 L61.5113333,9.65377778 L61.4615556,9.65377778 C61.2790361,9.95244594 61.003187,10.2013323 60.634,10.4004444 C60.264813,10.5995566 59.8479282,10.6991111 59.3833333,10.6991111 Z M59.57,9.65377778 C60.109262,9.65377778 60.5676277,9.45466866 60.9451111,9.05644444 C61.3225945,8.65822023 61.5113333,8.12311447 61.5113333,7.45111111 C61.5113333,6.77910775 61.3225945,6.24400199 60.9451111,5.84577778 C60.5676277,5.44755356 60.109262,5.24844444 59.57,5.24844444 C59.0390344,5.24844444 58.5827426,5.44962762 58.2011111,5.852 C57.8194796,6.25437238 57.6286667,6.78740409 57.6286667,7.45111111 C57.6286667,8.11481813 57.8194796,8.64784984 58.2011111,9.05022222 C58.5827426,9.4525946 59.0390344,9.65377778 59.57,9.65377778 Z M66.5797222,10.6991111 C65.6671251,10.6991111 64.9163178,10.3900772 64.3272778,9.772 C63.7382378,9.15392284 63.4437222,8.38030094 63.4437222,7.45111111 C63.4437222,6.52192128 63.7382378,5.74829939 64.3272778,5.13022222 C64.9163178,4.51214506 65.6671251,4.20311111 66.5797222,4.20311111 C67.2600219,4.20311111 67.8241644,4.36903538 68.2721667,4.70088889 C68.7201689,5.0327424 69.0478693,5.45170117 69.2552778,5.95777778 L68.2099444,6.39333333 C67.8946836,5.63007026 67.326393,5.24844444 66.5050556,5.24844444 C65.998979,5.24844444 65.5530575,5.45584978 65.1672778,5.87066667 C64.7814981,6.28548356 64.5886111,6.8122931 64.5886111,7.45111111 C64.5886111,8.08992912 64.7814981,8.61673867 65.1672778,9.03155556 C65.5530575,9.44637244 65.998979,9.65377778 66.5050556,9.65377778 C67.3595783,9.65377778 67.9486095,9.27215196 68.2721667,8.50888889 L69.2926111,8.94444444 C69.0852027,9.44222471 68.7512801,9.85910943 68.2908333,10.1951111 C67.8303866,10.5311128 67.2600219,10.6991111 66.5797222,10.6991111 Z M72.009,10.6991111 C71.3618857,10.6991111 70.8205577,10.5124463 70.385,10.1391111 C69.9494423,9.76577591 69.7316667,9.27215122 69.7316667,8.65822222 C69.7316667,7.9945152 69.9888493,7.47392781 70.5032222,7.09644444 C71.0175952,6.71896108 71.6522555,6.53022222 72.4072222,6.53022222 C73.0792256,6.53022222 73.6309238,6.65466542 74.0623333,6.90355556 L74.0623333,6.72933333 C74.0623333,6.28133109 73.9088534,5.92251987 73.6018889,5.65288889 C73.2949244,5.38325791 72.9174467,5.24844444 72.4694444,5.24844444 C72.1375909,5.24844444 71.8368532,5.32725847 71.5672222,5.48488889 C71.2975912,5.64251931 71.1130005,5.85822085 71.0134444,6.132 L69.9681111,5.684 C70.1091489,5.31896114 70.387072,4.98089044 70.8018889,4.66977778 C71.2167058,4.35866511 71.7642559,4.20311111 72.4445556,4.20311111 C73.2244113,4.20311111 73.8715159,4.43125698 74.3858889,4.88755556 C74.9002618,5.34385413 75.1574444,5.98681067 75.1574444,6.81644444 L75.1574444,10.5 L74.0623333,10.5 L74.0623333,9.65377778 L74.0125556,9.65377778 C73.556257,10.3506702 72.8884118,10.6991111 72.009,10.6991111 Z M72.1956667,9.65377778 C72.6685579,9.65377778 73.097887,9.47748324 73.4836667,9.12488889 C73.8694464,8.77229453 74.0623333,8.35540981 74.0623333,7.87422222 C73.7387762,7.60873941 73.2534477,7.476 72.6063333,7.476 C72.0504787,7.476 71.6315199,7.59629509 71.3494444,7.83688889 C71.067369,8.07748268 70.9263333,8.35955394 70.9263333,8.68311111 C70.9263333,8.98177927 71.0549246,9.21822135 71.3121111,9.39244444 C71.5692976,9.56666754 71.8638132,9.65377778 72.1956667,9.65377778 Z M78.5085,10.6991111 C77.8282003,10.6991111 77.2661318,10.5331868 76.8222778,10.2013333 C76.3784237,9.86947982 76.0527973,9.45466916 75.8453889,8.95688889 L76.8658333,8.53377778 C77.1893905,9.29704085 77.7410887,9.67866667 78.5209444,9.67866667 C78.877687,9.67866667 79.1701285,9.59985264 79.3982778,9.44222222 C79.6264271,9.2845918 79.7405,9.07718647 79.7405,8.82 C79.7405,8.42177579 79.4625769,8.15214885 78.9067222,8.01111111 L77.6747222,7.71244444 C77.2847943,7.61288839 76.9156129,7.42414954 76.5671667,7.14622222 C76.2187205,6.86829491 76.0445,6.49289125 76.0445,6.02 C76.0445,5.48073804 76.2830161,5.04311279 76.7600556,4.70711111 C77.237095,4.37110943 77.8033115,4.20311111 78.4587222,4.20311111 C78.9979842,4.20311111 79.4791646,4.32548026 79.9022778,4.57022222 C80.325391,4.81496419 80.6282028,5.1654792 80.8107222,5.62177778 L79.8151667,6.03244444 C79.5911655,5.49318249 79.1265776,5.22355556 78.4213889,5.22355556 C78.081239,5.22355556 77.7950197,5.29407337 77.5627222,5.43511111 C77.3304248,5.57614885 77.2142778,5.76696176 77.2142778,6.00755556 C77.2142778,6.35600174 77.4839047,6.59244382 78.0231667,6.71688889 L79.2302778,7.00311111 C79.8027251,7.13585252 80.225832,7.36399838 80.4996111,7.68755556 C80.7733903,8.01111273 80.9102778,8.37614612 80.9102778,8.78266667 C80.9102778,9.33022496 80.68628,9.78651669 80.2382778,10.1515556 C79.7902755,10.5165944 79.2136887,10.6991111 78.5085,10.6991111 Z M84.336,10.5995556 C83.697182,10.5995556 83.2097795,10.4294832 82.8737778,10.0893333 C82.5377761,9.74918348 82.3697778,9.26800311 82.3697778,8.64577778 L82.3697778,5.44755556 L81.2995556,5.44755556 L81.2995556,4.40222222 L82.3697778,4.40222222 L82.3697778,2.53555556 L83.5146667,2.53555556 L83.5146667,4.40222222 L85.008,4.40222222 L85.008,5.44755556 L83.5146667,5.44755556 L83.5146667,8.55866667 C83.5146667,9.22237369 83.7884417,9.55422222 84.336,9.55422222 C84.5434084,9.55422222 84.7176289,9.52103737 84.8586667,9.45466667 L85.2568889,10.4377778 C85.0079988,10.5456302 84.7010389,10.5995556 84.336,10.5995556 Z M88.3466111,10.6991111 C87.6663114,10.6991111 87.104243,10.5331868 86.6603889,10.2013333 C86.2165348,9.86947982 85.8909084,9.45466916 85.6835,8.95688889 L86.7039444,8.53377778 C87.0275016,9.29704085 87.5791998,9.67866667 88.3590556,9.67866667 C88.7157981,9.67866667 89.0082396,9.59985264 89.2363889,9.44222222 C89.4645382,9.2845918 89.5786111,9.07718647 89.5786111,8.82 C89.5786111,8.42177579 89.300688,8.15214885 88.7448333,8.01111111 L87.5128333,7.71244444 C87.1229055,7.61288839 86.753724,7.42414954 86.4052778,7.14622222 C86.0568316,6.86829491 85.8826111,6.49289125 85.8826111,6.02 C85.8826111,5.48073804 86.1211272,5.04311279 86.5981667,4.70711111 C87.0752061,4.37110943 87.6414226,4.20311111 88.2968333,4.20311111 C88.8360953,4.20311111 89.3172757,4.32548026 89.7403889,4.57022222 C90.1635021,4.81496419 90.4663139,5.1654792 90.6488333,5.62177778 L89.6532778,6.03244444 C89.4292767,5.49318249 88.9646887,5.22355556 88.2595,5.22355556 C87.9193502,5.22355556 87.6331308,5.29407337 87.4008333,5.43511111 C87.1685359,5.57614885 87.0523889,5.76696176 87.0523889,6.00755556 C87.0523889,6.35600174 87.3220158,6.59244382 87.8612778,6.71688889 L89.0683889,7.00311111 C89.6408362,7.13585252 90.0639431,7.36399838 90.3377222,7.68755556 C90.6115014,8.01111273 90.7483889,8.37614612 90.7483889,8.78266667 C90.7483889,9.33022496 90.5243911,9.78651669 90.0763889,10.1515556 C89.6283866,10.5165944 89.0517998,10.6991111 88.3466111,10.6991111 Z" id="Podcasts" fill="#3C4043"></path>
            <path d="M0.291666667,5.59027778 C0.291666667,2.77083333 2.65416667,0.486111111 5.47361111,0.486111111 C7.02916667,0.486111111 8.1375,1.09861111 8.97361111,1.89583333 L7.98194444,2.87777778 C7.38888889,2.31388889 6.58194444,1.87638889 5.47361111,1.87638889 C3.42222222,1.87638889 1.81805556,3.52916667 1.81805556,5.58055556 C1.81805556,7.63194444 3.42222222,9.28472222 5.47361111,9.28472222 C6.80555556,9.28472222 7.56388889,8.75 8.05,8.26388889 C8.44861111,7.86527778 8.71111111,7.29166667 8.80833333,6.51388889 L5.47361111,6.51388889 L5.47361111,5.12361111 L10.1694444,5.12361111 C10.2180556,5.37638889 10.2472222,5.66805556 10.2472222,5.99861111 C10.2472222,7.04861111 9.96527778,8.34166667 9.04166667,9.25555556 C8.1375,10.1888889 6.99027778,10.6847222 5.47361111,10.6847222 C2.65416667,10.6847222 0.291666667,8.4 0.291666667,5.59027778 Z M13.9902778,4.18055556 C15.8083333,4.18055556 17.2861111,5.56111111 17.2861111,7.46666667 C17.2861111,9.3625 15.8083333,10.7527778 13.9902778,10.7527778 C12.1722222,10.7527778 10.6944444,9.3625 10.6944444,7.46666667 C10.6944444,5.56111111 12.1722222,4.18055556 13.9902778,4.18055556 Z M13.9902778,9.45 C14.9819444,9.45 15.8472222,8.63333333 15.8472222,7.45694444 C15.8472222,6.27083333 14.9819444,5.46388889 13.9902778,5.46388889 C12.9888889,5.46388889 12.1333333,6.27083333 12.1333333,7.45694444 C12.1333333,8.63333333 12.9986111,9.45 13.9902778,9.45 Z M21.1847222,4.18055556 C23.0027778,4.18055556 24.4805556,5.56111111 24.4805556,7.46666667 C24.4805556,9.3625 23.0027778,10.7527778 21.1847222,10.7527778 C19.3666667,10.7527778 17.8888889,9.3625 17.8888889,7.46666667 C17.8888889,5.56111111 19.3666667,4.18055556 21.1847222,4.18055556 Z M21.1847222,9.45 C22.1763889,9.45 23.0416667,8.63333333 23.0416667,7.45694444 C23.0416667,6.27083333 22.1861111,5.46388889 21.1847222,5.46388889 C20.1833333,5.46388889 19.3277778,6.27083333 19.3277778,7.45694444 C19.3277778,8.63333333 20.1930556,9.45 21.1847222,9.45 Z M30.0125,4.2875 L31.3930556,4.2875 L31.3930556,10.1888889 C31.3930556,12.6194444 29.9638889,13.6111111 28.2722222,13.6111111 C26.6777778,13.6111111 25.7152778,12.5416667 25.3555556,11.6666667 L26.6097222,11.1416667 C26.8333333,11.6763889 27.3777778,12.3083333 28.2625,12.3083333 C29.3416667,12.3083333 30.0125,11.6375 30.0125,10.3833333 L30.0125,9.90694444 L29.9638889,9.90694444 C29.6430556,10.3055556 29.0208333,10.6555556 28.2333333,10.6555556 C26.5902778,10.6555556 25.0833333,9.21666667 25.0833333,7.37916667 C25.0833333,5.52222222 26.5902778,4.08333333 28.2333333,4.08333333 C29.0208333,4.08333333 29.6430556,4.43333333 29.9638889,4.82222222 L30.0125,4.82222222 L30.0125,4.2875 Z M28.3597222,9.3625 C29.3416667,9.3625 30.1194444,8.53611111 30.1097222,7.37916667 C30.1097222,6.22222222 29.3416667,5.37638889 28.3597222,5.37638889 C27.3680556,5.37638889 26.5319444,6.22222222 26.5319444,7.37916667 C26.5319444,8.52638889 27.3680556,9.3625 28.3597222,9.3625 Z M32.375,10.5291667 L32.375,0.875 L33.8138889,0.875 L33.8138889,10.5291667 L32.375,10.5291667 Z M37.7708333,9.45 C38.5097222,9.45 39.0152778,9.09027778 39.3944444,8.54583333 L40.5125,9.29444444 C40.1430556,9.82916667 39.2777778,10.7527778 37.7708333,10.7527778 C35.9041667,10.7527778 34.5138889,9.30416667 34.5138889,7.46666667 C34.5138889,5.5125 35.9236111,4.18055556 37.6152778,4.18055556 C39.3166667,4.18055556 40.1527778,5.53194444 40.425,6.27083333 L40.5708333,6.64027778 L36.1763889,8.45833333 C36.5166667,9.10972222 37.0319444,9.45 37.7708333,9.45 Z M37.6638889,5.44444444 C36.925,5.44444444 35.9041667,6.09583333 35.9430556,7.35972222 L38.8791667,6.14444444 C38.7236111,5.72638889 38.2375,5.44444444 37.6638889,5.44444444 Z" id="Combined-Shape" fill="#3C4043" fill-rule="nonzero"></path>
        </g>
        <path d="M36.5908203,12.3100586 L39.6230469,12.3100586 L39.6230469,13 L35.7426758,13 L35.7426758,6.6015625 L36.5908203,6.6015625 L36.5908203,12.3100586 Z M41.5663086,13 L40.7533203,13 L40.7533203,8.24511719 L41.5663086,8.24511719 L41.5663086,13 Z M40.6874023,6.98388672 C40.6874023,6.85205012 40.7276851,6.74072311 40.808252,6.64990234 C40.8888188,6.55908158 41.0082023,6.51367188 41.1664063,6.51367188 C41.3246102,6.51367188 41.4447262,6.55908158 41.5267578,6.64990234 C41.6087895,6.74072311 41.6498047,6.85205012 41.6498047,6.98388672 C41.6498047,7.11572332 41.6087895,7.2255855 41.5267578,7.31347656 C41.4447262,7.40136763 41.3246102,7.4453125 41.1664063,7.4453125 C41.0082023,7.4453125 40.8888188,7.40136763 40.808252,7.31347656 C40.7276851,7.2255855 40.6874023,7.11572332 40.6874023,6.98388672 Z M45.8606445,11.7387695 C45.8606445,11.5190419 45.7778817,11.3483893 45.6123535,11.2268066 C45.4468253,11.105224 45.158254,11.0004887 44.7466309,10.9125977 C44.3350077,10.8247066 44.0083508,10.7192389 43.7666504,10.5961914 C43.52495,10.4731439 43.3462408,10.326661 43.2305176,10.1567383 C43.1147943,9.98681556 43.0569336,9.78466914 43.0569336,9.55029297 C43.0569336,9.16064258 43.2217269,8.83105604 43.5513184,8.56152344 C43.8809099,8.29199084 44.3020482,8.15722656 44.8147461,8.15722656 C45.3538113,8.15722656 45.7910628,8.29638533 46.1265137,8.57470703 C46.4619646,8.85302874 46.6296875,9.20898221 46.6296875,9.64257812 L45.8123047,9.64257812 C45.8123047,9.41992076 45.7178232,9.22802815 45.5288574,9.06689453 C45.3398916,8.90576091 45.1018569,8.82519531 44.8147461,8.82519531 C44.5188462,8.82519531 44.2874032,8.88964779 44.1204102,9.01855469 C43.9534171,9.14746158 43.8699219,9.31591693 43.8699219,9.52392578 C43.8699219,9.72021583 43.9475578,9.86816356 44.102832,9.96777344 C44.2581062,10.0673833 44.538621,10.1625972 44.9443848,10.253418 C45.3501485,10.3442387 45.6790026,10.4526361 45.930957,10.5786133 C46.1829114,10.7045905 46.3696771,10.8562003 46.4912598,11.0334473 C46.6128424,11.2106942 46.6736328,11.4267565 46.6736328,11.6816406 C46.6736328,12.1064474 46.5037126,12.4470202 46.1638672,12.7033691 C45.8240217,12.9597181 45.3831082,13.0878906 44.8411133,13.0878906 C44.460252,13.0878906 44.1233413,13.0205085 43.8303711,12.8857422 C43.5374009,12.7509759 43.3081551,12.5627453 43.142627,12.3210449 C42.9770988,12.0793445 42.8943359,11.8178725 42.8943359,11.5366211 L43.7073242,11.5366211 C43.7219727,11.8090834 43.8311025,12.0251457 44.0347168,12.1848145 C44.2383311,12.3444832 44.5071272,12.4243164 44.8411133,12.4243164 C45.148732,12.4243164 45.3955557,12.3620612 45.5815918,12.2375488 C45.7676279,12.1130365 45.8606445,11.9467784 45.8606445,11.7387695 Z M49.0607422,7.09375 L49.0607422,8.24511719 L49.9484375,8.24511719 L49.9484375,8.87353516 L49.0607422,8.87353516 L49.0607422,11.8222656 C49.0607422,12.0126963 49.1002926,12.1555171 49.1793945,12.2507324 C49.2584965,12.3459477 49.3932608,12.3935547 49.5836914,12.3935547 C49.6774419,12.3935547 49.8063468,12.3759767 49.9704102,12.3408203 L49.9704102,13 C49.7565419,13.058594 49.5485362,13.0878906 49.3463867,13.0878906 C48.9831037,13.0878906 48.7091806,12.9780284 48.5246094,12.7583008 C48.3400381,12.5385731 48.2477539,12.2265645 48.2477539,11.8222656 L48.2477539,8.87353516 L47.3820312,8.87353516 L47.3820312,8.24511719 L48.2477539,8.24511719 L48.2477539,7.09375 L49.0607422,7.09375 Z M53.0958008,13.0878906 C52.4512663,13.0878906 51.9268575,12.8762228 51.5225586,12.4528809 C51.1182597,12.0295389 50.9161133,11.4633825 50.9161133,10.7543945 L50.9161133,10.6049805 C50.9161133,10.1332984 51.0062003,9.71216006 51.186377,9.34155273 C51.3665536,8.97094541 51.6185042,8.68090925 51.9422363,8.47143555 C52.2659684,8.26196184 52.616795,8.15722656 52.9947266,8.15722656 C53.6128937,8.15722656 54.0933577,8.36083781 54.4361328,8.76806641 C54.778908,9.175295 54.950293,9.75829699 54.950293,10.5170898 L54.950293,10.8554688 L51.7291016,10.8554688 C51.7408204,11.3242211 51.8777819,11.7028794 52.1399902,11.9914551 C52.4021986,12.2800307 52.7354472,12.4243164 53.1397461,12.4243164 C53.4268569,12.4243164 53.6700185,12.3657232 53.8692383,12.2485352 C54.068458,12.1313471 54.2427727,11.9760752 54.3921875,11.7827148 L54.8887695,12.1694336 C54.49033,12.7817413 53.8926798,13.0878906 53.0958008,13.0878906 Z M52.9947266,8.82519531 C52.6665999,8.82519531 52.3912121,8.94457888 52.1685547,9.18334961 C51.9458973,9.42212033 51.8082034,9.75683378 51.7554687,10.1875 L54.1373047,10.1875 L54.1373047,10.1259766 C54.1138671,9.71288856 54.0025401,9.3928234 53.8033203,9.16577148 C53.6041006,8.93871957 53.334572,8.82519531 52.9947266,8.82519531 Z M56.8847656,8.24511719 L56.9111328,8.84277344 C57.2744159,8.3857399 57.7490205,8.15722656 58.3349609,8.15722656 C59.3398488,8.15722656 59.8466796,8.72411542 59.8554688,9.85791016 L59.8554688,13 L59.0424805,13 L59.0424805,9.85351562 C59.0395508,9.51074047 58.9611824,9.25732504 58.807373,9.09326172 C58.6535637,8.9291984 58.4140641,8.84716797 58.0888672,8.84716797 C57.825194,8.84716797 57.593751,8.91747977 57.3945312,9.05810547 C57.1953115,9.19873117 57.0400396,9.38329964 56.9287109,9.61181641 L56.9287109,13 L56.1157227,13 L56.1157227,8.24511719 L56.8847656,8.24511719 Z M63.5442383,10.5786133 C63.5442383,10.1127906 63.6357901,9.69384952 63.8188965,9.32177734 C64.0020029,8.94970517 64.2568831,8.66259867 64.5835449,8.46044922 C64.9102067,8.25829977 65.2830057,8.15722656 65.7019531,8.15722656 C66.3494173,8.15722656 66.8730937,8.38134542 67.272998,8.82958984 C67.6729024,9.27783427 67.8728516,9.87401972 67.8728516,10.6181641 L67.8728516,10.675293 C67.8728516,11.1381859 67.7842294,11.553465 67.6069824,11.9211426 C67.4297354,12.2888202 67.17632,12.5751943 66.8467285,12.7802734 C66.517137,12.9853526 66.1384787,13.0878906 65.7107422,13.0878906 C65.0662077,13.0878906 64.5439961,12.8637718 64.1440918,12.4155273 C63.7441875,11.9672829 63.5442383,11.3740271 63.5442383,10.6357422 L63.5442383,10.5786133 Z M64.3616211,10.675293 C64.3616211,11.2026394 64.4839343,11.625975 64.7285645,11.9453125 C64.9731946,12.26465 65.3005839,12.4243164 65.7107422,12.4243164 C66.1238302,12.4243164 66.4519519,12.2624528 66.6951172,11.9387207 C66.9382825,11.6149886 67.0598633,11.161624 67.0598633,10.5786133 C67.0598633,10.0571263 66.9360852,9.6345231 66.6885254,9.31079102 C66.4409656,8.98705893 66.1121114,8.82519531 65.7019531,8.82519531 C65.3005839,8.82519531 64.9768567,8.98486168 64.7307617,9.30419922 C64.4846667,9.62353675 64.3616211,10.0805634 64.3616211,10.675293 Z M69.8864258,8.24511719 L69.912793,8.84277344 C70.276076,8.3857399 70.7506807,8.15722656 71.3366211,8.15722656 C72.3415089,8.15722656 72.8483398,8.72411542 72.8571289,9.85791016 L72.8571289,13 L72.0441406,13 L72.0441406,9.85351562 C72.0412109,9.51074047 71.9628426,9.25732504 71.8090332,9.09326172 C71.6552238,8.9291984 71.4157243,8.84716797 71.0905273,8.84716797 C70.8268542,8.84716797 70.5954112,8.91747977 70.3961914,9.05810547 C70.1969717,9.19873117 70.0416998,9.38329964 69.9303711,9.61181641 L69.9303711,13 L69.1173828,13 L69.1173828,8.24511719 L69.8864258,8.24511719 Z" id="Listen-on" fill="#5F6368"></path>
    </g>
</svg>