<?xml version="1.0" encoding="utf-8"?>
<!-- Generator: Adobe Illustrator 20.1.0, SVG Export Plug-In . SVG Version: 6.00 Build 0)  -->
<svg version="1.1" id="Icon" xmlns="http://www.w3.org/2000/svg" xmlns:xlink="http://www.w3.org/1999/xlink" x="0px" y="0px"
	 width="132.791px" height="34.013px" viewBox="0 0 132.791 34.013" enable-background="new 0 0 132.791 34.013"
	 xml:space="preserve">
<g>
	<g id="XMLID_24_">
		<path id="XMLID_43_" fill="#777878" d="M132.781,9.079c0-0.33,0-0.66-0.004-0.99c-0.024-0.72-0.067-1.441-0.198-2.152
			c-0.123-0.721-0.338-1.393-0.667-2.047c-0.332-0.644-0.759-1.234-1.271-1.743c-0.507-0.509-1.097-0.937-1.738-1.266
			c-0.66-0.333-1.33-0.549-2.052-0.675c-0.706-0.128-1.429-0.171-2.149-0.189c-0.329-0.005-0.664-0.011-0.992-0.014
			C123.324,0,122.932,0,122.546,0H10.25C9.857,0,9.467,0,9.074,0.002C8.745,0.005,8.418,0.011,8.086,0.016
			C7.37,0.035,6.646,0.078,5.932,0.206c-0.72,0.127-1.389,0.342-2.044,0.675C3.244,1.21,2.656,1.639,2.148,2.148
			C1.633,2.656,1.207,3.246,0.881,3.89C0.547,4.544,0.334,5.216,0.209,5.937c-0.13,0.711-0.174,1.432-0.193,2.152
			C0.006,8.419,0.005,8.749,0,9.079c0,0.39,0,0.78,0,1.173v13.509c0,0.397,0,0.786,0,1.177c0.005,0.333,0.006,0.658,0.016,0.99
			c0.018,0.721,0.063,1.442,0.193,2.153c0.125,0.721,0.338,1.395,0.672,2.047c0.326,0.641,0.752,1.231,1.266,1.736
			c0.509,0.513,1.096,0.941,1.741,1.266c0.655,0.337,1.324,0.549,2.044,0.679C6.646,33.938,7.37,33.98,8.086,34
			c0.332,0.007,0.659,0.011,0.988,0.011c0.393,0.002,0.783,0.002,1.177,0.002h112.295c0.386,0,0.778,0,1.165-0.002
			c0.328,0,0.662-0.004,0.992-0.011c0.72-0.02,1.443-0.062,2.149-0.191c0.722-0.13,1.392-0.342,2.052-0.679
			c0.642-0.326,1.232-0.753,1.738-1.266c0.512-0.505,0.939-1.095,1.271-1.736c0.329-0.652,0.543-1.326,0.667-2.047
			c0.131-0.711,0.174-1.432,0.198-2.153c0.004-0.332,0.004-0.657,0.004-0.99c0.01-0.391,0.01-0.779,0.01-1.177V10.253
			C132.791,9.86,132.791,9.469,132.781,9.079z"/>
		<path id="XMLID_42_" fill="#FFFFFF" d="M132.125,23.761c0,0.392,0,0.775-0.009,1.177c0,0.328,0,0.653-0.005,0.97
			c-0.018,0.621-0.057,1.35-0.187,2.06c-0.115,0.67-0.313,1.279-0.603,1.855c-0.304,0.585-0.688,1.115-1.152,1.576
			c-0.458,0.459-0.985,0.844-1.57,1.143c-0.569,0.29-1.181,0.491-1.865,0.615c-0.71,0.125-1.435,0.161-2.045,0.18
			c-0.328,0.006-0.656,0.011-0.983,0.011c-0.386,0.002-0.777,0.002-1.161,0.002H10.25c-0.392,0-0.781,0-1.177-0.002
			c-0.325,0-0.647-0.004-0.968-0.011c-0.617-0.018-1.343-0.054-2.058-0.18c-0.682-0.123-1.29-0.325-1.858-0.615
			c-0.58-0.294-1.107-0.681-1.575-1.149c-0.459-0.455-0.842-0.982-1.142-1.567c-0.29-0.571-0.489-1.178-0.611-1.865
			c-0.134-0.736-0.167-1.481-0.181-2.053c-0.008-0.227-0.011-0.456-0.013-0.685l-0.004-0.285v-1.177V10.253V9.088L0.669,8.79
			c0.002-0.226,0.005-0.454,0.013-0.685c0.014-0.567,0.047-1.312,0.182-2.053c0.12-0.685,0.319-1.292,0.611-1.862
			c0.298-0.587,0.681-1.114,1.144-1.572C3.083,2.154,3.611,1.77,4.191,1.473c0.575-0.292,1.184-0.495,1.856-0.614
			c0.73-0.129,1.482-0.162,2.05-0.18l0.977-0.014c0.394-0.003,0.784-0.003,1.175-0.003h112.295c0.384,0,0.775,0,1.159,0.003
			l0.054,0.002l0.924,0.012c0.575,0.017,1.327,0.051,2.051,0.18c0.676,0.119,1.285,0.321,1.865,0.614
			c0.584,0.298,1.112,0.682,1.571,1.145c0.462,0.461,0.846,0.989,1.147,1.571c0.293,0.579,0.492,1.189,0.606,1.869
			c0.13,0.701,0.169,1.432,0.187,2.045c0.005,0.325,0.005,0.651,0.005,0.989c0.009,0.387,0.009,0.771,0.009,1.16V23.761z"/>
		<g id="XMLID_30_">
			<g id="XMLID_25_">
				<linearGradient id="XMLID_2_" gradientUnits="userSpaceOnUse" x1="17.4905" y1="5.811" x2="17.4905" y2="28.2041">
					<stop  offset="0" style="stop-color:#F452FF"/>
					<stop  offset="1" style="stop-color:#832BC1"/>
				</linearGradient>
				<path id="XMLID_40_" fill-rule="evenodd" clip-rule="evenodd" fill="url(#XMLID_2_)" d="M28.244,25.22
					c-0.218,0.553-0.72,1.331-1.432,1.88c-0.411,0.317-0.902,0.619-1.577,0.819c-0.719,0.213-1.604,0.285-2.706,0.285H12.452
					c-1.102,0-1.987-0.072-2.706-0.285c-0.674-0.2-1.165-0.503-1.577-0.819c-0.712-0.548-1.215-1.327-1.432-1.88
					c-0.438-1.114-0.443-2.378-0.443-3.174l0,0V11.969l0,0c0-0.796,0.004-2.06,0.443-3.174c0.218-0.553,0.72-1.331,1.432-1.88
					C8.58,6.599,9.071,6.296,9.746,6.096c0.719-0.213,1.604-0.285,2.706-0.285l0,0h10.077l0,0c1.102,0,1.987,0.072,2.706,0.285
					c0.674,0.2,1.165,0.503,1.577,0.819c0.712,0.548,1.215,1.327,1.432,1.88c0.438,1.114,0.443,2.378,0.443,3.174v10.077
					C28.687,22.842,28.683,24.106,28.244,25.22z"/>
				<path id="XMLID_38_" fill-rule="evenodd" clip-rule="evenodd" fill="none" d="M28.244,25.22c-0.218,0.553-0.72,1.331-1.432,1.88
					c-0.411,0.317-0.902,0.619-1.577,0.819c-0.719,0.213-1.604,0.285-2.706,0.285H12.452c-1.102,0-1.987-0.072-2.706-0.285
					c-0.674-0.2-1.165-0.503-1.577-0.819c-0.712-0.548-1.215-1.327-1.432-1.88c-0.438-1.114-0.443-2.378-0.443-3.174l0,0V11.969l0,0
					c0-0.796,0.004-2.06,0.443-3.174c0.218-0.553,0.72-1.331,1.432-1.88C8.58,6.599,9.071,6.296,9.746,6.096
					c0.719-0.213,1.604-0.285,2.706-0.285l0,0h10.077l0,0c1.102,0,1.987,0.072,2.706,0.285c0.674,0.2,1.165,0.503,1.577,0.819
					c0.712,0.548,1.215,1.327,1.432,1.88c0.438,1.114,0.443,2.378,0.443,3.174v10.077C28.687,22.842,28.683,24.106,28.244,25.22z"/>
				<g id="XMLID_26_">
					<g>
						<path fill="#FFFFFF" d="M19.114,18.682c-0.336-0.354-0.926-0.582-1.623-0.582s-1.287,0.227-1.623,0.582
							c-0.175,0.185-0.268,0.375-0.297,0.645c-0.057,0.523-0.025,0.974,0.036,1.694c0.058,0.686,0.169,1.601,0.314,2.534
							c0.103,0.663,0.187,1.021,0.263,1.278c0.123,0.415,0.585,0.779,1.307,0.779s1.183-0.363,1.307-0.779
							c0.076-0.256,0.16-0.614,0.263-1.278c0.145-0.932,0.256-1.847,0.314-2.534c0.061-0.72,0.093-1.171,0.036-1.694
							C19.383,19.057,19.29,18.867,19.114,18.682z M15.661,15.525c0,1.012,0.82,1.833,1.833,1.833s1.833-0.82,1.833-1.833
							c0-1.012-0.821-1.833-1.833-1.833S15.661,14.513,15.661,15.525z M17.471,8.293c-4.286,0.012-7.798,3.489-7.851,7.775
							c-0.043,3.472,2.173,6.442,5.268,7.53c0.075,0.026,0.151-0.036,0.14-0.115c-0.041-0.269-0.079-0.54-0.114-0.807
							c-0.012-0.094-0.072-0.175-0.159-0.213c-2.446-1.069-4.154-3.522-4.127-6.363c0.036-3.729,3.081-6.769,6.81-6.8
							c3.812-0.031,6.924,3.062,6.924,6.867c0,2.813-1.701,5.236-4.128,6.296c-0.087,0.038-0.147,0.119-0.159,0.213
							c-0.035,0.266-0.073,0.537-0.114,0.806c-0.012,0.079,0.064,0.141,0.139,0.115c3.065-1.078,5.269-4.002,5.269-7.431
							C25.368,11.818,21.823,8.28,17.471,8.293z M17.328,11.906c2.43-0.094,4.436,1.855,4.436,4.264
							c0,1.225-0.519,2.331-1.349,3.111c-0.07,0.066-0.108,0.16-0.103,0.256c0.016,0.293,0.01,0.578-0.009,0.899
							c-0.005,0.086,0.091,0.14,0.162,0.092c1.391-0.951,2.306-2.549,2.306-4.358c0-2.978-2.481-5.388-5.484-5.271
							c-2.791,0.108-5.031,2.409-5.066,5.203c-0.023,1.837,0.897,3.464,2.306,4.427c0.071,0.048,0.167-0.007,0.161-0.092
							c-0.02-0.322-0.026-0.607-0.009-0.9c0.005-0.096-0.032-0.19-0.103-0.256c-0.856-0.803-1.381-1.954-1.347-3.225
							C13.29,13.819,15.093,11.992,17.328,11.906z"/>
					</g>
				</g>
			</g>
		</g>
	</g>
	<path id="XMLID_22_" fill="#FFFFFF" d="M132.125,23.761c0,0.392,0,0.775-0.009,1.177c0,0.328,0,0.653-0.005,0.97
		c-0.018,0.621-0.057,1.35-0.187,2.06c-0.115,0.67-0.313,1.279-0.603,1.855c-0.304,0.585-0.688,1.115-1.152,1.576
		c-0.458,0.459-0.985,0.844-1.57,1.143c-0.569,0.29-1.181,0.491-1.865,0.615c-0.71,0.125-1.435,0.161-2.045,0.18
		c-0.328,0.006-0.656,0.011-0.983,0.011c-0.386,0.002-0.777,0.002-1.161,0.002H10.25c-0.392,0-0.781,0-1.177-0.002
		c-0.325,0-0.647-0.004-0.968-0.011c-0.617-0.018-1.343-0.054-2.058-0.18c-0.682-0.123-1.29-0.325-1.858-0.615
		c-0.58-0.294-1.107-0.681-1.575-1.149c-0.459-0.455-0.842-0.982-1.142-1.567c-0.29-0.571-0.489-1.178-0.611-1.865
		c-0.134-0.736-0.167-1.481-0.181-2.053c-0.008-0.227-0.011-0.456-0.013-0.685l-0.004-0.285v-1.177V10.253V9.088L0.669,8.79
		c0.002-0.226,0.005-0.454,0.013-0.685c0.014-0.567,0.047-1.312,0.182-2.053c0.12-0.685,0.319-1.292,0.611-1.862
		c0.298-0.587,0.681-1.114,1.144-1.572C3.083,2.154,3.611,1.77,4.191,1.473c0.575-0.292,1.184-0.495,1.856-0.614
		c0.73-0.129,1.482-0.162,2.05-0.18l0.977-0.014c0.394-0.003,0.784-0.003,1.175-0.003h112.295c0.384,0,0.775,0,1.159,0.003
		l0.054,0.002l0.924,0.012c0.575,0.017,1.327,0.051,2.051,0.18c0.676,0.119,1.285,0.321,1.865,0.614
		c0.584,0.298,1.112,0.682,1.571,1.145c0.462,0.461,0.846,0.989,1.147,1.571c0.293,0.579,0.492,1.189,0.606,1.869
		c0.13,0.701,0.169,1.432,0.187,2.045c0.005,0.325,0.005,0.651,0.005,0.989c0.009,0.387,0.009,0.771,0.009,1.16V23.761z"/>
	<g id="XMLID_61_">
		<g>
			<path fill="#777878" d="M37.179,13.029h-3.917V6.578h0.805v5.727h3.112V13.029z"/>
			<path fill="#777878" d="M38.158,7.114c0-0.268,0.219-0.483,0.483-0.483c0.268,0,0.487,0.215,0.487,0.483
				c0,0.264-0.219,0.483-0.487,0.483C38.377,7.597,38.158,7.378,38.158,7.114z M38.252,8.379h0.778v4.65h-0.778V8.379z"/>
			<path fill="#777878" d="M42.007,8.339c0.957,0,1.677,0.563,1.704,1.337h-0.742c-0.045-0.434-0.42-0.702-0.988-0.702
				c-0.563,0-0.943,0.269-0.943,0.667c0,0.313,0.246,0.519,0.773,0.652l0.72,0.174c0.939,0.237,1.278,0.568,1.278,1.243
				c0,0.8-0.769,1.364-1.851,1.364c-1.015,0-1.739-0.545-1.811-1.359h0.778c0.076,0.474,0.456,0.724,1.082,0.724
				c0.626,0,1.02-0.259,1.02-0.67c0-0.322-0.192-0.492-0.715-0.63l-0.818-0.21c-0.818-0.21-1.22-0.622-1.22-1.248
				C40.272,8.893,40.988,8.339,42.007,8.339z"/>
			<path fill="#777878" d="M45.911,7.257v1.122h0.903v0.64h-0.903v2.758c0,0.425,0.179,0.617,0.577,0.617
				c0.089,0,0.268-0.014,0.322-0.022v0.653c-0.094,0.022-0.309,0.036-0.492,0.036c-0.854,0-1.185-0.349-1.185-1.243V9.019H44.44
				v-0.64h0.693V7.257H45.911z"/>
			<path fill="#777878" d="M51.627,11.697c-0.129,0.805-0.939,1.377-1.936,1.377c-1.314,0-2.142-0.908-2.142-2.352
				c0-1.444,0.832-2.387,2.105-2.387c1.248,0,2.03,0.876,2.03,2.285v0.295h-3.335v0.045c0,0.872,0.541,1.439,1.359,1.439
				c0.572,0,1.024-0.273,1.153-0.702H51.627z M48.355,10.307h2.526c-0.018-0.778-0.514-1.296-1.238-1.296
				C48.923,9.01,48.404,9.533,48.355,10.307z"/>
			<path fill="#777878" d="M52.737,8.379h0.733v0.76h0.018c0.291-0.532,0.755-0.805,1.475-0.805c1.02,0,1.61,0.657,1.61,1.712v2.982
				h-0.778v-2.843c0-0.751-0.349-1.163-1.073-1.163c-0.751,0-1.207,0.523-1.207,1.31v2.696h-0.778V8.379z"/>
			<path fill="#777878" d="M59.751,10.705c0-1.449,0.84-2.37,2.155-2.37c1.31,0,2.15,0.921,2.15,2.37c0,1.444-0.84,2.37-2.15,2.37
				C60.592,13.074,59.751,12.148,59.751,10.705z M63.265,10.705c0-1.06-0.505-1.686-1.359-1.686c-0.858,0-1.364,0.63-1.364,1.686
				c0,1.06,0.51,1.686,1.364,1.686S63.265,11.764,63.265,10.705z"/>
			<path fill="#777878" d="M65.108,8.379h0.733v0.76h0.018c0.291-0.532,0.755-0.805,1.475-0.805c1.02,0,1.61,0.657,1.61,1.712v2.982
				h-0.778v-2.843c0-0.751-0.349-1.163-1.073-1.163c-0.751,0-1.207,0.523-1.207,1.31v2.696h-0.778V8.379z"/>
		</g>
		<g>
			<path d="M38.607,24.395h-3.651l-0.876,2.589h-1.547l3.458-9.578h1.606l3.458,9.578h-1.573L38.607,24.395z M35.335,23.201h2.894
				l-1.427-4.202h-0.04L35.335,23.201z"/>
			<path d="M48.698,23.493c0,2.17-1.162,3.564-2.914,3.564c-0.996,0-1.785-0.445-2.197-1.222h-0.033v3.458H42.12v-9.293h1.387v1.162
				h0.026c0.398-0.75,1.248-1.234,2.224-1.234C47.529,19.929,48.698,21.329,48.698,23.493z M47.224,23.493
				c0-1.414-0.73-2.343-1.845-2.343c-1.095,0-1.832,0.949-1.832,2.343c0,1.407,0.737,2.35,1.832,2.35
				C46.494,25.843,47.224,24.92,47.224,23.493z"/>
			<path d="M56.437,23.493c0,2.17-1.162,3.564-2.914,3.564c-0.996,0-1.785-0.445-2.197-1.222h-0.033v3.458h-1.434v-9.293h1.387
				v1.162h0.026c0.398-0.75,1.248-1.234,2.224-1.234C55.268,19.929,56.437,21.329,56.437,23.493z M54.963,23.493
				c0-1.414-0.73-2.343-1.845-2.343c-1.095,0-1.832,0.949-1.832,2.343c0,1.407,0.737,2.35,1.832,2.35
				C54.233,25.843,54.963,24.92,54.963,23.493z"/>
			<path d="M57.651,17.406h1.434v9.578h-1.434V17.406z"/>
			<path d="M66.841,24.934c-0.192,1.268-1.427,2.137-3.007,2.137c-2.031,0-3.292-1.361-3.292-3.544c0-2.19,1.268-3.611,3.232-3.611
				c1.932,0,3.146,1.327,3.146,3.445v0.491h-4.932v0.086c0,1.195,0.75,1.978,1.878,1.978c0.796,0,1.42-0.378,1.613-0.982H66.841z
				 M61.996,22.849h3.491c-0.033-1.069-0.717-1.772-1.712-1.772C62.786,21.077,62.069,21.794,61.996,22.849z"/>
			<path d="M75.093,17.406c1.858,0,3.153,1.281,3.153,3.146c0,1.872-1.321,3.159-3.199,3.159h-2.058v3.272h-1.487v-9.578H75.093z
				 M72.989,22.464h1.706c1.294,0,2.031-0.697,2.031-1.905s-0.737-1.898-2.024-1.898h-1.712V22.464z"/>
			<path d="M78.918,23.493c0-2.197,1.294-3.578,3.312-3.578c2.024,0,3.312,1.38,3.312,3.578c0,2.204-1.281,3.578-3.312,3.578
				S78.918,25.697,78.918,23.493z M84.082,23.493c0-1.507-0.69-2.396-1.852-2.396s-1.852,0.896-1.852,2.396
				c0,1.513,0.69,2.396,1.852,2.396S84.082,25.006,84.082,23.493z"/>
			<path d="M86.535,23.493c0-2.157,1.188-3.564,2.92-3.564c1.002,0,1.792,0.464,2.19,1.234h0.026v-3.757h1.44v9.578h-1.394v-1.188
				h-0.026c-0.412,0.796-1.208,1.261-2.224,1.261C87.723,27.058,86.535,25.65,86.535,23.493z M88.002,23.493
				c0,1.434,0.73,2.35,1.845,2.35c1.102,0,1.838-0.929,1.838-2.35c0-1.407-0.737-2.343-1.838-2.343
				C88.732,21.15,88.002,22.073,88.002,23.493z"/>
			<path d="M99.333,22.404c-0.126-0.737-0.704-1.288-1.646-1.288c-1.102,0-1.832,0.923-1.832,2.376c0,1.487,0.737,2.383,1.845,2.383
				c0.89,0,1.474-0.445,1.633-1.254h1.381c-0.16,1.467-1.334,2.449-3.027,2.449c-1.991,0-3.292-1.361-3.292-3.578
				c0-2.17,1.301-3.578,3.279-3.578c1.792,0,2.907,1.128,3.027,2.489H99.333z"/>
			<path d="M101.621,24.986c0-1.221,0.936-1.938,2.675-2.044l1.858-0.106v-0.531c0-0.79-0.524-1.214-1.434-1.214
				c-0.75,0-1.301,0.385-1.414,0.982h-1.341c0.04-1.248,1.208-2.157,2.795-2.157c1.712,0,2.82,0.896,2.82,2.283v4.786h-1.373v-1.148
				h-0.033c-0.392,0.75-1.262,1.248-2.204,1.248C102.583,27.084,101.621,26.227,101.621,24.986z M106.154,24.369v-0.538
				l-1.673,0.106c-0.929,0.053-1.42,0.412-1.42,1.016c0,0.584,0.511,0.996,1.308,0.996
				C105.385,25.949,106.154,25.272,106.154,24.369z"/>
			<path d="M111.773,19.922c1.546,0,2.654,0.856,2.688,2.091h-1.347c-0.061-0.617-0.584-0.996-1.381-0.996
				c-0.776,0-1.294,0.358-1.294,0.903c0,0.418,0.345,0.697,1.068,0.876l1.175,0.272c1.407,0.338,1.938,0.856,1.938,1.878
				c0,1.261-1.195,2.124-2.901,2.124c-1.646,0-2.754-0.843-2.86-2.118h1.42c0.1,0.67,0.638,1.029,1.507,1.029
				c0.856,0,1.395-0.352,1.395-0.909c0-0.432-0.266-0.664-0.996-0.85l-1.248-0.305c-1.261-0.306-1.898-0.949-1.898-1.918
				C109.038,20.765,110.146,19.922,111.773,19.922z"/>
			<path d="M117.791,18.349v1.652h1.327v1.135h-1.327v3.85c0,0.598,0.266,0.876,0.85,0.876c0.146,0,0.378-0.02,0.471-0.033v1.128
				c-0.159,0.04-0.478,0.066-0.796,0.066c-1.414,0-1.965-0.531-1.965-1.885v-4.002h-1.016v-1.135h1.016v-1.652H117.791z"/>
			<path d="M122.965,19.922c1.546,0,2.654,0.856,2.688,2.091h-1.347c-0.061-0.617-0.584-0.996-1.381-0.996
				c-0.776,0-1.294,0.358-1.294,0.903c0,0.418,0.345,0.697,1.068,0.876l1.175,0.272c1.407,0.338,1.938,0.856,1.938,1.878
				c0,1.261-1.195,2.124-2.901,2.124c-1.646,0-2.754-0.843-2.86-2.118h1.42c0.1,0.67,0.638,1.029,1.507,1.029
				c0.856,0,1.395-0.352,1.395-0.909c0-0.432-0.266-0.664-0.996-0.85l-1.248-0.305c-1.261-0.306-1.898-0.949-1.898-1.918
				C120.229,20.765,121.338,19.922,122.965,19.922z"/>
		</g>
	</g>
	<g id="XMLID_5_">
		<g id="XMLID_6_">
			<linearGradient id="XMLID_4_" gradientUnits="userSpaceOnUse" x1="17.4905" y1="5.811" x2="17.4905" y2="28.2041">
				<stop  offset="0" style="stop-color:#F452FF"/>
				<stop  offset="1" style="stop-color:#832BC1"/>
			</linearGradient>
			<path id="XMLID_20_" fill-rule="evenodd" clip-rule="evenodd" fill="url(#XMLID_4_)" d="M28.244,25.22
				c-0.218,0.553-0.72,1.331-1.432,1.88c-0.411,0.317-0.902,0.619-1.577,0.819c-0.719,0.213-1.604,0.285-2.706,0.285H12.452
				c-1.102,0-1.987-0.072-2.706-0.285c-0.674-0.2-1.165-0.503-1.577-0.819c-0.712-0.548-1.215-1.327-1.432-1.88
				c-0.438-1.114-0.443-2.378-0.443-3.174l0,0V11.969l0,0c0-0.796,0.004-2.06,0.443-3.174c0.218-0.553,0.72-1.331,1.432-1.88
				C8.58,6.599,9.071,6.296,9.746,6.096c0.719-0.213,1.604-0.285,2.706-0.285l0,0h10.077l0,0c1.102,0,1.987,0.072,2.706,0.285
				c0.674,0.2,1.165,0.503,1.577,0.819c0.712,0.548,1.215,1.327,1.432,1.88c0.438,1.114,0.443,2.378,0.443,3.174v10.077
				C28.687,22.842,28.683,24.106,28.244,25.22z"/>
			<path id="XMLID_18_" fill-rule="evenodd" clip-rule="evenodd" fill="none" d="M28.244,25.22c-0.218,0.553-0.72,1.331-1.432,1.88
				c-0.411,0.317-0.902,0.619-1.577,0.819c-0.719,0.213-1.604,0.285-2.706,0.285H12.452c-1.102,0-1.987-0.072-2.706-0.285
				c-0.674-0.2-1.165-0.503-1.577-0.819c-0.712-0.548-1.215-1.327-1.432-1.88c-0.438-1.114-0.443-2.378-0.443-3.174l0,0V11.969l0,0
				c0-0.796,0.004-2.06,0.443-3.174c0.218-0.553,0.72-1.331,1.432-1.88C8.58,6.599,9.071,6.296,9.746,6.096
				c0.719-0.213,1.604-0.285,2.706-0.285l0,0h10.077l0,0c1.102,0,1.987,0.072,2.706,0.285c0.674,0.2,1.165,0.503,1.577,0.819
				c0.712,0.548,1.215,1.327,1.432,1.88c0.438,1.114,0.443,2.378,0.443,3.174v10.077C28.687,22.842,28.683,24.106,28.244,25.22z"/>
			<g id="XMLID_7_">
				<g>
					<path fill="#FFFFFF" d="M19.114,18.682c-0.336-0.354-0.926-0.582-1.623-0.582c-0.697,0-1.287,0.227-1.623,0.582
						c-0.175,0.185-0.268,0.375-0.297,0.645c-0.057,0.523-0.025,0.974,0.036,1.694c0.058,0.686,0.169,1.601,0.314,2.534
						c0.103,0.663,0.187,1.021,0.263,1.278c0.123,0.415,0.585,0.779,1.307,0.779c0.722,0,1.183-0.363,1.307-0.779
						c0.076-0.256,0.16-0.614,0.263-1.278c0.145-0.932,0.256-1.847,0.314-2.534c0.061-0.72,0.093-1.171,0.037-1.694
						C19.383,19.057,19.29,18.867,19.114,18.682z M15.661,15.525c0,1.012,0.82,1.833,1.833,1.833s1.833-0.82,1.833-1.833
						c0-1.012-0.821-1.833-1.833-1.833S15.661,14.513,15.661,15.525z M17.471,8.293c-4.286,0.012-7.798,3.489-7.851,7.775
						c-0.043,3.472,2.173,6.442,5.268,7.53c0.075,0.026,0.151-0.036,0.14-0.115c-0.041-0.269-0.079-0.54-0.114-0.807
						c-0.012-0.094-0.072-0.175-0.159-0.213c-2.446-1.069-4.154-3.522-4.127-6.363c0.036-3.729,3.081-6.769,6.81-6.8
						c3.812-0.031,6.924,3.062,6.924,6.867c0,2.813-1.701,5.236-4.128,6.296c-0.087,0.038-0.147,0.119-0.159,0.213
						c-0.035,0.266-0.073,0.537-0.114,0.806c-0.012,0.079,0.064,0.141,0.14,0.115c3.065-1.078,5.268-4.002,5.268-7.431
						C25.368,11.818,21.823,8.28,17.471,8.293z M17.328,11.906c2.43-0.094,4.436,1.855,4.436,4.264c0,1.225-0.519,2.331-1.349,3.111
						c-0.07,0.066-0.108,0.16-0.103,0.256c0.016,0.293,0.01,0.578-0.009,0.899c-0.005,0.086,0.091,0.14,0.162,0.092
						c1.391-0.951,2.306-2.549,2.306-4.358c0-2.978-2.481-5.388-5.484-5.271c-2.791,0.108-5.031,2.409-5.066,5.203
						c-0.023,1.837,0.897,3.464,2.306,4.427c0.071,0.048,0.167-0.007,0.161-0.092c-0.02-0.322-0.026-0.607-0.009-0.9
						c0.005-0.096-0.032-0.19-0.103-0.256c-0.856-0.803-1.381-1.954-1.347-3.225C13.29,13.819,15.093,11.992,17.328,11.906z"/>
				</g>
			</g>
		</g>
	</g>
</g>
<g>
</g>
<g>
</g>
<g>
</g>
<g>
</g>
<g>
</g>
<g>
</g>
</svg>
